<?xml version="1.0" encoding="utf-8"?>
<!-- Generator: Adobe Illustrator 26.1.0, SVG Export Plug-In . SVG Version: 6.00 Build 0)  -->
<svg version="1.1" id="Clean_ICO" xmlns="http://www.w3.org/2000/svg" xmlns:xlink="http://www.w3.org/1999/xlink" x="0px" y="0px"
	 viewBox="0 0 121.8 114.8" style="enable-background:new 0 0 121.8 114.8;" xml:space="preserve">
<style type="text/css">
	.st0{fill:#6E5A98;}
	.st1{fill:#523C88;}
	.st2{fill:#27203B;}
</style>
<g>
	<path class="st0" d="M28.2,62.3l-5.1-47.4L0,67.3l12.1-0.8l13.2-0.9C25.6,64,26.8,62.8,28.2,62.3z"/>
	<g>
		<path class="st1" d="M90,85.4l-7.3-50l-0.9-6.5c-0.8-0.1-1.6-0.4-2.2-0.8L33.5,64.5c0.3,0.6,0.5,1.3,0.5,2c0,0.1,0,0.2,0,0.3
			l54.1,20.1C88.6,86.3,89.2,85.7,90,85.4z"/>
		<path class="st1" d="M32.2,62.9l46.1-36.3c-0.3-0.5-0.5-1.1-0.5-1.8l-53-12.4l5.4,49.7C30.9,62.2,31.6,62.5,32.2,62.9z"/>
		<path class="st1" d="M78.4,22.8c0.5-1.3,1.7-2.2,3-2.5V0.4L28.6,11.2L78.4,22.8z"/>
		<path class="st1" d="M29.6,70.9L29.6,70.9c-2.1,0-3.8-1.4-4.2-3.3L0.5,69.2l38.4,43.4L29.6,70.9z"/>
	</g>
	<g>
		<path class="st2" d="M87.2,89.5c0-0.3,0-0.5,0.1-0.8L33.4,68.7c-0.4,0.7-1.1,1.3-1.8,1.7l9.9,44.4l45.9-24.3
			C87.2,90.2,87.2,89.9,87.2,89.5z"/>
		<path class="st2" d="M92.4,93.9c-0.3,0.1-0.6,0.1-0.9,0.1c-1.4,0-2.6-0.7-3.4-1.7l-41.7,22.1l51.4-7.9L92.4,93.9z"/>
		<path class="st2" d="M108.3,41.8l-23.1-14c-0.4,0.4-0.9,0.7-1.4,0.9L92,85.2c0.5,0,0.9,0.1,1.4,0.3l28.4-35.7L108.3,41.8z"/>
		<path class="st2" d="M83.4,20.3c1.9,0.5,3.4,2.2,3.4,4.3c0,0.5-0.1,1-0.3,1.5l32.5,19.6L83.4,2V20.3z"/>
		<path class="st2" d="M96,89.5c0,1.4-0.7,2.7-1.7,3.5l5,11.7l20.3-48.9L95,86.7C95.6,87.5,96,88.5,96,89.5z"/>
	</g>
</g>
</svg>
